<?xml version="1.0" encoding="iso-8859-1"?>
<!-- Generator: Adobe Illustrator 19.0.0, SVG Export Plug-In . SVG Version: 6.00 Build 0)  -->
<svg version="1.1" id="Layer_1" xmlns="http://www.w3.org/2000/svg" xmlns:xlink="http://www.w3.org/1999/xlink" x="0px" y="0px"
	 viewBox="0 0 496.2 496.2" style="enable-background:new 0 0 496.2 496.2;" xml:space="preserve">
<path style="fill:#FFEFD6;" d="M0,248.1C0,111.1,111.1,0,248.1,0s248.1,111.1,248.1,248.1S385.1,496.2,248.1,496.2S0,385.1,0,248.1z
	"/>
<path style="fill:#E2A379;" d="M375.6,375.1c-4.1-0.2-20.3,0.1-21.8,0.3c-3.6,0.5-7.4-0.9-7.3-4.3c0.1-2.6,0.9-5.1,0.5-6.7
	c-2.2-8.1-8.4-33.2-11-43c-0.8-3.3,19.6-9.9,20-6.3c1.5,14.4,1.1,44.9,1,50.1c0,0,21.4,0.9,21.6,4.7
	C378.8,372.1,379.7,375.4,375.6,375.1z"/>
<path style="fill:#333333;" d="M334.3,298.3c-0.5,5.8-2,10.7,1.8,23.1c3.1-1.5,12.3-5.3,20-6.3c-0.7-5.8,0.2-33-7.3-40.8
	c-7.9-8.2-80.5,10.9-82.2,8.3c0,0-36.4,24.6-21.3,34.8C263.9,329.7,334.3,298.3,334.3,298.3z"/>
<path style="fill:#F4B382;" d="M76.2,373.1c-0.4-4.1-6-17.4-6.4-18.9c-1-3.5-0.4-7.4,3.1-7.9c2.6-0.3,5.2,0.1,6.7-0.6
	c7.6-3.5,31.3-11.1,40.5-15.2c2.1-0.9,4.3-1.8,6.6-2.7c9.3-3.5,10.6,17.6,7.1,18.5c-13.9,3.8-48.2,8.6-53.4,9.4
	c0,0,5.2,18.6,1.5,19.5C79.7,375.7,76.6,377.2,76.2,373.1z"/>
<path style="fill:#3D3C3C;" d="M157.9,318.9c-11.3,2.4-21.9,5.4-31.2,8.9c2.2,2.7,7,15.4,7.1,18.5c3.5-0.9,30.8-6.7,30.8-6.7
	c8.6-1.8,59.8-12,74.2-19.4c3.8-1.8,36.5-11.4,42.9-26c2.4-5.5-27.5-19.1-35.6-17.7c-3.9,0-10.5,0.6-14.6,2.8
	c-6.2,3.2-10.2,10.2-10.2,10.2c-18.5,9.9-36.2,20.1-41.1,22.6C173,315.8,157.9,318.9,157.9,318.9z"/>
<g>
	<path style="fill:#E2A379;" d="M253.3,71.3c-3.8,0-1.8,15.8-2.8,20.6l2.6,5.7c-2.3,34.7,3.9,49.8,3.9,49.8
		c-2.3,20.7-4.8,60.6-3.4,68.4c1.3,7.8,17.3,6.9,17.9-1.1c0.6-7.9,0.3-15,0.2-22.9c0-7.9-1.2-37.4-1.9-44.3
		c-0.1-0.9-8.2-49.9-8.2-49.9s0.1-2,1.2-5.3c1.6-4.6,1.2-11.5-0.5-15.2C260.8,73.9,257.1,71.3,253.3,71.3z"/>
	<path style="fill:#E2A379;" d="M252.1,87.1c0,0,0.4-5-2.2-5.5c-2.2-0.4-3-0.3,0.6,10.3C250.5,91.9,252,91.8,252.1,87.1z"/>
</g>
<path style="fill:#B3233B;" d="M289.1,220.6c0.4-12.3-9.8-15.4-16.5-28.5c-0.8-1.6-8.4-6.1-12.4-6.2c-4.4-0.1-8.9,0.6-12.3,4.2
	c-2.6,2.8-7.8,11.5-3.5,34.5c1,8.9,8.8,45.6,1.9,52c0,0,12.2,9.3,20.2,11.3s15.3,6.3,15.3,6.3c8.4-19.7,1-52.4,2.8-64.7
	C284.7,229.6,289,224.1,289.1,220.6z"/>
<path style="fill:#E2A379;" d="M269.1,187c0,0-3.2-8.9-5.2-16.9l-13.4-0.9c2.6,8,0.7,18.8,0.7,18.8c12.5-1.3,17.7,3,21,4.3
	L269.1,187z"/>
<path style="fill:#F4B382;" d="M254.5,138.5c-3.5-5.3-9.2-4.8-12.5-4.1c-10.4,2.1-13.3,7.4-15.8,14.7c-3.4,9.6,20.6,22.1,25.1,22.8
	c11.8,1.7,21.5-12,23.9-18.2c2.6-6.8-0.4-5.9-3.2-6.7c-0.1,0-0.4-0.5-0.4-0.5c-0.9-0.4-2.3-0.7-3.3-1.8c0,0-0.9-0.1-1.4-0.2
	c-0.3-0.1-0.5-0.2-0.5-0.6c0-1.1,0-2.2-0.3-2.7C265.3,139.4,256.1,141,254.5,138.5z"/>
<path style="fill:#D6876B;" d="M268.1,149.1c0,0,0.6-0.5,1.8-3.6c0-0.5-0.2-1.3-1.3-1C267.8,144.7,268.6,146.8,268.1,149.1z"/>
<path style="fill:#CC785E;" d="M268.1,149.1c0,0,1.8-0.1,3.5-2.7c0.1-0.4-0.1-0.9-0.3-1c-0.8-0.7-1.5,0.1-1.5,0.1
	C268.7,148.6,268.1,149.1,268.1,149.1z"/>
<path style="fill:#602F0F;" d="M224.3,149.2c-4.1,11.7,7.3,33.2,32.7,24.3c1.7-0.6,4.1-2.5,2.7-7.1c-1-3.2-3-5.9-3-5.9
	c-0.6-0.8-1.2-1.6-1.9-2.5c-0.8-1-6.8-2.3-6.6-3.5c2.2-12.1-2.1-19.1-5.2-20.2C235.2,133,228.7,136.7,224.3,149.2z"/>
<path style="fill:#F4B382;" d="M252.7,161.2c5.8,0.1,6.8-2,7.6-5.2l-8.7-1.1l-3.8,0.4C247,158.6,246.9,161.1,252.7,161.2z"/>
<path style="fill:#4C230C;" d="M235.7,173.7c-3.3,1.9-8.5-1.3-11.6-7.3c-3.1-5.9-3-12.3,0.3-14.2s7,1.2,10.1,7.1
	C237.6,165.3,238.9,171.8,235.7,173.7z"/>
<g>
	<path style="fill:#602F0F;" d="M249.9,153.6c-1-0.2-1.9-0.5-2.5-0.7c-1-0.4-1.6-0.8-1.6-0.8v3.8c0.5,0.2,1,0.4,1.5,0.5
		c0,0,0-0.4,0-1.1v0.1c0.9-0.2,2.3-0.4,4.2-0.3C251.6,155.2,253,154.2,249.9,153.6z"/>
	<path style="fill:#602F0F;" d="M234.6,175.5c-3.5,2-9.1-1.6-12.5-8.1s-3.4-13.4,0.1-15.4s7.5,1.4,10.9,7.9
		C236.6,166.5,238.1,173.5,234.6,175.5z"/>
</g>
<path style="fill:#4C230C;" d="M224.9,170c-0.4,0.2-1.5-1.2-2.6-3.2c-1-2-1.6-3.8-1.2-4c0.4-0.2,1.3,1,2.3,3
	C224.5,167.8,225.3,169.7,224.9,170z"/>
<g>
	<path style="fill:#F4B382;" d="M247.8,66.3c-3.8,0-1.8,15.8-2.8,20.6l2.6,5.7c-2.3,34.7,3.9,49.8,3.9,49.8
		c-2.3,20.7-4.8,60.6-3.4,68.4c1.3,7.8,17.3,6.9,17.9-1.1c0.6-7.9,0.3-15,0.2-22.9c0-7.9-1.2-37.4-1.9-44.3
		c-0.1-0.9-8.2-49.9-8.2-49.9s0.1-2,1.2-5.3c1.6-4.6,1.2-11.5-0.5-15.2C255.3,68.9,251.6,66.3,247.8,66.3z"/>
	<path style="fill:#F4B382;" d="M246.6,82.1c0,0,0.4-5-2.2-5.5c-2.2-0.4-3-0.3,0.6,10.3C245,86.9,246.5,86.8,246.6,82.1z"/>
</g>
<g>
</g>
<g>
</g>
<g>
</g>
<g>
</g>
<g>
</g>
<g>
</g>
<g>
</g>
<g>
</g>
<g>
</g>
<g>
</g>
<g>
</g>
<g>
</g>
<g>
</g>
<g>
</g>
<g>
</g>
</svg>
