<?xml version="1.0" standalone="no" ?>
<!DOCTYPE svg PUBLIC "-//W3C//DTD SVG 20010904//EN"
  "http://www.w3.org/TR/2001/REC-SVG-20010904/DTD/svg10.dtd">
<svg
  version="1.0"
  xmlns="http://www.w3.org/2000/svg"
  width="1250.000000pt"
  height="1280.000000pt"
  viewBox="0 0 1250.000000 1280.000000"
  preserveAspectRatio="xMidYMid meet"
>
<metadata>
Created by potrace 1.15, written by Peter Selinger 2001-2017
</metadata>
<g
    transform="translate(0.000000,1280.000000) scale(0.100000,-0.100000)"
    fill="#fff"
    stroke="none"
  >
<path
      d="M3479 12784 c-13 -12 -14 -25 -8 -57 23 -117 7 -254 -61 -520 -118
-471 -139 -918 -70 -1557 37 -350 39 -490 11 -735 -14 -114 -26 -314 -33 -543
-14 -421 -3 -692 37 -962 13 -91 38 -257 55 -370 53 -361 60 -736 15 -860 -19
-53 -29 -152 -50 -489 -17 -260 -40 -447 -71 -581 l-18 -75 -7 45 c-14 88 -9
425 11 650 33 379 27 565 -30 910 -28 175 -54 387 -90 735 -33 324 -42 399
-95 780 -51 377 -63 466 -80 630 -22 203 -71 591 -96 750 -16 101 -30 153 -65
235 -24 58 -73 208 -109 333 -35 126 -81 267 -101 315 -42 97 -99 194 -90 152
33 -159 32 -686 -4 -1095 -27 -321 -36 -704 -21 -915 34 -457 110 -863 213
-1130 70 -181 87 -246 103 -378 9 -70 40 -264 70 -432 182 -1024 234 -1473
237 -2075 2 -212 -1 -274 -15 -334 -9 -41 -20 -78 -25 -83 -9 -9 -22 115 -53
527 -34 456 -49 588 -91 790 -38 187 -152 562 -218 716 -15 37 -51 160 -79
273 -135 545 -338 1035 -656 1586 -122 211 -275 449 -296 461 -11 5 -42 30
-69 54 -88 78 -100 63 -66 -88 14 -61 34 -173 45 -247 74 -504 72 -493 145
-667 15 -34 38 -118 52 -187 16 -79 47 -182 85 -283 83 -216 128 -341 189
-518 155 -449 204 -558 435 -964 114 -202 151 -309 219 -631 19 -91 53 -242
76 -335 83 -343 99 -434 107 -620 3 -83 3 -175 -1 -206 l-7 -55 -38 35 -38 36
-12 185 c-35 540 -120 918 -271 1215 -158 310 -266 419 -642 644 -76 45 -138
86 -138 90 0 5 -22 42 -48 82 -85 131 -208 240 -447 400 -218 146 -392 229
-477 229 -50 0 -138 38 -267 114 -140 83 -197 110 -254 120 l-39 7 19 -33 c21
-38 116 -135 220 -226 43 -37 113 -116 172 -195 155 -207 272 -314 671 -612
364 -273 443 -352 628 -629 92 -138 154 -219 224 -292 147 -153 184 -220 338
-599 54 -132 133 -323 175 -425 90 -216 115 -290 115 -333 -1 -29 -2 -28 -19
18 -22 62 -60 137 -111 220 -53 87 -90 162 -170 343 -83 186 -113 233 -198
314 -181 170 -613 389 -887 448 -117 26 -290 41 -624 55 -371 15 -469 24 -617
54 -49 10 -91 17 -93 15 -2 -2 4 -15 13 -28 9 -14 49 -41 93 -61 86 -39 78
-35 200 -105 105 -60 310 -142 608 -243 597 -203 696 -238 881 -320 120 -53
224 -112 315 -178 84 -62 303 -286 358 -367 49 -72 98 -172 107 -219 6 -29 4
-31 -15 -26 -12 3 -59 40 -104 81 -130 119 -247 162 -499 184 -168 14 -536 -3
-603 -29 -131 -50 -184 -64 -274 -73 -68 -7 -117 -19 -155 -36 -245 -112 -721
-122 -960 -21 -34 15 -38 15 -32 1 19 -51 111 -126 219 -180 204 -103 575
-175 828 -161 117 7 290 47 582 136 171 52 418 101 509 101 27 0 75 -7 105
-16 35 -10 72 -14 99 -10 l43 5 76 -82 c137 -146 150 -183 164 -472 l8 -180
-37 -75 c-41 -83 -154 -365 -190 -475 -13 -38 -35 -84 -51 -102 -43 -50 -75
-109 -128 -241 -54 -134 -98 -202 -222 -337 -92 -102 -136 -157 -234 -300 -69
-100 -166 -204 -283 -303 -61 -53 -112 -129 -112 -170 0 -24 93 -113 147 -141
l41 -21 32 37 c18 20 80 108 138 197 71 108 128 182 173 226 58 55 74 78 104
150 27 64 60 115 130 203 102 128 131 180 165 297 25 87 59 157 124 257 57 88
78 138 195 453 131 352 180 445 355 680 203 271 232 307 291 351 104 79 307
166 465 199 30 7 163 16 295 20 240 8 240 8 390 50 194 53 236 58 630 70 399
12 597 37 903 111 255 62 503 169 674 291 74 54 88 68 98 103 6 23 33 72 60
110 75 107 102 152 110 191 10 42 3 74 -17 74 -17 0 -38 -23 -121 -136 -140
-191 -201 -214 -702 -263 -456 -46 -544 -50 -790 -43 -124 4 -288 4 -366 0
-402 -19 -807 -147 -1096 -346 -54 -37 -152 -104 -218 -150 -101 -70 -262
-162 -284 -162 -3 0 -6 18 -6 40 0 30 7 48 31 75 41 47 200 166 319 240 90 55
601 322 720 375 166 75 714 389 929 533 40 27 108 65 150 84 167 75 206 100
366 233 50 41 133 107 185 146 112 85 178 152 247 254 55 81 60 86 198 230 50
52 163 181 252 285 89 105 182 213 206 240 24 28 50 68 57 90 7 22 34 90 60
150 48 111 80 226 80 287 0 32 -3 30 -136 -102 -74 -74 -163 -169 -196 -210
-49 -60 -74 -82 -127 -108 -69 -35 -105 -60 -294 -204 -63 -48 -188 -132 -278
-188 -326 -203 -393 -247 -582 -389 -243 -182 -279 -213 -462 -391 -194 -189
-268 -254 -570 -502 -137 -113 -320 -270 -405 -348 -221 -203 -737 -632 -787
-654 -63 -28 -69 -17 -23 45 40 54 87 93 256 213 103 73 138 108 183 189 40
73 306 381 429 499 84 81 195 166 274 212 27 15 58 42 70 59 12 18 65 75 118
127 70 70 106 115 135 170 25 46 72 108 125 165 65 69 103 123 159 223 40 72
96 157 124 189 27 32 82 108 122 169 40 60 96 137 124 170 28 32 63 88 77 124
57 138 74 168 152 272 45 60 110 165 148 239 56 108 82 146 149 217 44 48 96
109 114 136 49 71 124 235 166 366 20 63 57 176 82 250 l46 134 -1 216 c-2
218 5 312 31 453 16 84 10 136 -21 170 -15 17 -17 17 -29 -17 -6 -20 -17 -96
-22 -169 -12 -143 -27 -212 -68 -316 -44 -112 -178 -372 -240 -466 -33 -49
-77 -121 -98 -160 -68 -125 -93 -159 -143 -197 -62 -46 -127 -144 -252 -378
-122 -230 -150 -271 -342 -495 -90 -105 -179 -213 -199 -240 -62 -86 -184
-294 -293 -504 -199 -379 -404 -677 -736 -1070 -84 -99 -109 -144 -159 -280
-42 -115 -69 -157 -154 -242 -41 -41 -102 -107 -136 -146 -56 -67 -103 -103
-131 -103 -6 0 15 33 45 73 33 42 103 166 172 302 170 337 401 710 608 985
148 197 181 255 240 420 20 58 70 176 111 263 76 162 92 209 119 357 11 58 26
101 47 135 59 94 86 150 102 210 70 266 160 664 186 830 40 250 59 323 108
421 82 163 120 319 192 782 36 233 37 250 5 388 -13 60 -29 172 -36 249 -7 92
-21 179 -41 255 -23 85 -30 136 -30 194 1 62 -4 91 -23 137 -20 47 -25 75 -25
148 0 94 -18 164 -46 175 -8 3 -15 4 -16 3 0 -1 -4 -162 -8 -357 -8 -413 -4
-392 -130 -774 -82 -251 -93 -292 -190 -727 -33 -147 -83 -349 -111 -450 -28
-101 -68 -247 -90 -324 -21 -77 -50 -203 -65 -280 -14 -77 -43 -232 -65 -345
-21 -113 -47 -259 -58 -326 -22 -129 -52 -237 -102 -355 -17 -41 -61 -162 -99
-269 -37 -107 -111 -312 -163 -455 -53 -143 -116 -321 -142 -395 -51 -149 -89
-230 -157 -335 -68 -104 -80 -133 -148 -340 -65 -198 -119 -329 -127 -308 -16
44 111 525 217 818 34 94 90 249 124 345 35 96 86 228 115 293 63 142 72 167
162 456 145 468 184 671 209 1111 24 429 41 640 59 740 67 370 73 417 91 735
13 225 20 270 80 535 69 302 74 339 67 525 -10 240 -37 437 -93 660 -14 55
-36 153 -49 218 -13 65 -32 132 -42 149 -18 30 -69 76 -76 67 -2 -2 2 -47 9
-99 21 -150 28 -428 15 -585 -20 -239 -55 -404 -118 -555 -77 -185 -92 -229
-117 -343 -56 -249 -88 -567 -106 -1047 -37 -1029 -43 -1098 -146 -1740 -104
-647 -136 -799 -312 -1455 -39 -143 -80 -306 -93 -363 -13 -56 -25 -100 -27
-98 -4 4 76 630 114 896 55 380 120 704 185 929 30 100 32 120 40 349 6 158
16 287 29 368 26 163 26 400 -1 719 -26 310 -36 765 -20 902 7 56 30 175 51
265 57 233 63 298 57 558 -6 230 -19 365 -62 633 -13 84 -33 224 -45 312 -11
88 -38 237 -60 330 -65 285 -75 395 -44 503 18 62 14 103 -30 270 -14 52 -28
118 -32 148 -7 56 -18 66 -45 38z"
    />
<path
      d="M6683 4679 c-154 -24 -346 -106 -663 -286 -107 -61 -247 -139 -310
-173 -390 -214 -795 -507 -1068 -772 -45 -45 -81 -82 -79 -84 9 -9 93 47 167
111 44 39 153 114 243 168 291 177 587 309 1017 455 258 88 658 227 815 283
117 42 123 43 245 43 69 1 192 -3 274 -8 l148 -9 -20 39 c-49 95 -187 184
-342 219 -88 20 -335 28 -427 14z"
    />
<path
      d="M5421 4619 c-84 -14 -166 -64 -262 -159 -106 -106 -137 -166 -179
-350 -46 -203 -62 -230 -251 -417 -88 -87 -177 -180 -199 -208 -40 -51 -105
-173 -97 -181 10 -11 70 63 102 125 42 85 74 116 210 206 129 84 235 190 317
315 68 104 285 320 374 373 74 44 156 65 287 73 78 5 107 11 149 32 29 15 54
32 55 37 5 15 -122 89 -203 118 -101 36 -218 50 -303 36z"
    />
<path
      d="M8070 4541 c-81 -18 -134 -37 -396 -145 -145 -60 -240 -82 -399 -96
-365 -30 -407 -37 -585 -95 -58 -18 -278 -83 -490 -144 -569 -162 -639 -189
-988 -371 -245 -128 -411 -227 -454 -272 -36 -37 -49 -68 -29 -68 14 0 245 98
546 233 460 205 491 215 1070 338 555 118 557 118 840 129 274 11 258 9 435
50 69 16 180 38 248 49 97 15 131 25 162 46 67 46 292 105 403 105 82 0 146
-18 287 -78 129 -55 180 -70 180 -52 0 101 -332 345 -515 379 -85 16 -217 12
-315 -8z"
    />
<path
      d="M9665 4214 c-168 -17 -263 -29 -415 -54 -226 -38 -313 -47 -550 -60
-107 -6 -242 -17 -300 -25 -227 -31 -375 -45 -605 -55 -362 -16 -571 -46
-1125 -160 -162 -34 -395 -81 -517 -105 -122 -25 -270 -56 -330 -71 -127 -30
-549 -162 -643 -200 -76 -31 -170 -85 -170 -98 0 -17 145 3 230 32 84 28 180
47 180 35 0 -3 -8 -12 -17 -20 -16 -12 8 -13 177 -9 187 4 251 13 306 44 12 7
22 4 34 -8 22 -22 74 -18 270 21 90 17 225 34 355 44 116 8 266 22 335 30 285
33 496 47 690 48 200 0 208 -1 330 -33 151 -39 182 -38 500 15 430 71 939 112
1265 101 326 -10 439 -28 966 -152 433 -101 511 -114 779 -124 288 -11 303
-14 716 -129 139 -39 340 -78 350 -68 6 6 -101 57 -231 109 -290 116 -704 226
-1175 313 -159 29 -215 44 -300 80 -222 93 -420 129 -710 129 -172 0 -217 -4
-380 -32 -230 -39 -452 -52 -920 -52 -507 1 -1319 -19 -1523 -36 -198 -16
-356 -38 -647 -90 -107 -20 -269 -48 -360 -65 -220 -39 -501 -76 -630 -83
l-105 -6 75 20 c41 11 167 40 280 64 309 68 366 82 478 120 170 60 205 65 667
106 596 53 876 64 1845 75 482 6 549 9 820 36 196 19 352 30 465 30 224 0 270
-10 500 -111 142 -62 162 -69 248 -79 57 -7 57 -7 57 19 0 36 -29 71 -92 111
-29 18 -89 61 -133 94 -122 92 -143 103 -266 134 -63 16 -149 43 -192 61 -43
17 -104 36 -135 41 -61 10 -381 20 -447 13z"
    />
<path
      d="M8915 3569 c-403 -52 -719 -74 -1205 -84 -604 -13 -800 -25 -1385
-84 -414 -42 -595 -47 -907 -25 -88 7 -178 -1 -178 -15 0 -10 149 -36 343 -61
308 -39 470 -43 1247 -34 857 9 1047 8 1345 -12 464 -30 673 -36 815 -24 143
13 190 10 340 -21 52 -11 147 -24 210 -28 95 -7 129 -14 195 -41 78 -33 85
-34 275 -41 107 -4 256 -16 330 -27 200 -31 299 -37 335 -20 22 9 88 13 250
13 206 1 231 3 390 34 362 69 505 76 755 36 85 -14 196 -27 245 -30 l90 -5
-45 21 c-109 51 -343 139 -430 163 -145 38 -272 50 -394 36 -118 -13 -196 -5
-397 40 -178 41 -259 55 -564 100 -843 123 -1313 154 -1660 109z"
    />
<path
      d="M5005 3341 c-3 -6 2 -14 12 -17 10 -3 63 -23 118 -44 285 -110 564
-164 975 -190 96 -6 240 -18 320 -27 96 -11 262 -17 490 -19 302 -2 356 -5
435 -23 50 -11 162 -27 250 -35 339 -33 502 -59 701 -111 218 -57 330 -101
672 -264 372 -177 452 -204 1117 -370 198 -49 457 -119 575 -154 427 -129 644
-184 655 -167 17 28 -59 78 -175 115 -30 9 -136 58 -235 108 -186 93 -354 163
-1165 489 -853 342 -1193 436 -1730 477 -337 27 -1625 72 -1980 70 -360 -2
-483 13 -555 67 -39 29 -83 40 -278 69 -89 13 -170 27 -179 30 -9 4 -19 2 -23
-4z"
    />
<path
      d="M4779 3297 c7 -10 23 -17 36 -17 12 0 70 -23 129 -51 296 -139 584
-214 1326 -344 822 -145 1439 -314 1793 -491 129 -65 229 -134 472 -323 115
-90 270 -202 343 -250 73 -47 242 -158 375 -246 264 -175 527 -338 533 -332 2
2 -18 37 -45 78 -52 80 -113 142 -259 263 -51 43 -172 166 -269 274 -290 324
-418 437 -698 622 -305 201 -678 324 -1267 420 -237 38 -726 100 -1068 135
-531 55 -594 66 -1035 186 -159 44 -310 83 -335 86 -41 6 -44 5 -31 -10z"
    />
<path
      d="M4560 3231 c0 -6 17 -25 37 -43 20 -18 109 -101 197 -184 89 -83 199
-184 246 -224 102 -88 221 -210 378 -385 64 -71 189 -209 277 -305 188 -206
233 -258 346 -405 48 -63 203 -232 364 -396 199 -204 293 -307 325 -358 95
-153 122 -189 216 -296 171 -193 258 -315 372 -515 32 -57 74 -102 105 -113 9
-4 17 -5 17 -3 0 23 -67 180 -139 326 -61 126 -111 246 -155 375 -78 232 -165
470 -199 548 -15 33 -51 83 -84 118 -32 34 -78 94 -103 135 -58 94 -429 544
-537 650 -97 95 -247 214 -393 311 -145 97 -640 404 -785 488 -66 38 -163 104
-216 147 -54 43 -119 89 -146 102 -57 29 -123 43 -123 27z"
    />
<path
      d="M4790 3204 c0 -29 73 -88 145 -118 39 -16 147 -65 240 -109 195 -90
314 -139 574 -232 432 -156 703 -310 1251 -710 286 -209 487 -346 860 -585
555 -356 815 -536 930 -645 74 -71 115 -95 160 -95 28 0 31 3 25 23 -4 12 -19
40 -34 62 -42 63 -488 505 -586 581 -53 41 -126 112 -180 174 -135 158 -199
217 -335 310 -122 83 -193 140 -395 315 -182 158 -459 328 -721 441 -368 159
-646 247 -1008 319 -94 19 -234 52 -311 74 -145 41 -567 183 -597 201 -14 8
-18 7 -18 -6z"
    />
<path
      d="M4435 3196 c-11 -7 -51 -33 -90 -57 -38 -24 -178 -125 -310 -225
-576 -433 -1369 -941 -1897 -1214 -213 -110 -282 -159 -333 -235 -31 -47 -44
-85 -30 -85 23 0 334 -32 346 -35 9 -3 96 56 220 151 112 86 434 325 714 532
783 576 901 668 1153 899 81 75 177 154 213 178 63 41 79 59 79 91 0 17 -38
18 -65 0z"
    />
</g>
</svg>
