<?xml version="1.0" ?>
<!DOCTYPE svg PUBLIC '-//W3C//DTD SVG 1.1//EN' 'http://www.w3.org/Graphics/SVG/1.1/DTD/svg11.dtd'>
<svg
  width="100px"
  fill="black"
  height="100px"
  viewBox="0 0 100 100"
  style="fill-rule:evenodd;clip-rule:evenodd;stroke-linejoin:round;stroke-miterlimit:2;"
  version="1.1"
  xml:space="preserve"
  xmlns="http://www.w3.org/2000/svg"
  xmlns:serif="http://www.serif.com/"
  xmlns:xlink="http://www.w3.org/1999/xlink"
><g id="Icon"><path
      d="M26.679,79.115c-0.019,0.024 -0.037,0.048 -0.054,0.074c-3.29,4.958 -7.291,8.886 -11.828,12.77c-0.42,0.359 -0.469,0.99 -0.11,1.41c0.359,0.419 0.991,0.468 1.41,0.109c4.489,-3.842 8.461,-7.734 11.773,-12.558c0.121,0.025 0.248,0.027 0.377,0.004c2.304,-0.413 4.47,-1.907 6.469,-2.998c4.673,-2.552 9.027,-5.652 13.447,-8.615c5.541,-3.713 11.824,-6.414 16.729,-11.067c3.941,-3.738 6.422,-9.364 9.078,-14.03c4.439,-7.8 9.608,-15.022 10.489,-24.254c0.352,-3.683 -0.565,-7.296 -0.996,-10.927c-0.009,-0.08 -0.028,-0.157 -0.054,-0.229c-0.092,-0.341 -0.362,-0.624 -0.73,-0.713c-2.501,-0.609 -5.092,-0.034 -7.569,1.131c-3.464,1.63 -6.707,4.417 -9.111,6.295c-1.987,1.554 -4.15,2.859 -6.145,4.404c-9.583,7.427 -18.013,16.753 -24.287,27.096c-2.126,3.505 -4.791,6.771 -6.449,10.538c-2.756,6.262 -3.272,14.673 -2.476,21.382c0.007,0.062 0.02,0.121 0.037,0.178Zm55.078,-67.851c-2.58,2.498 -5.356,4.791 -7.901,7.336c-0.465,0.465 -0.999,1.396 -1.587,2.141c-0.128,0.163 -0.26,0.317 -0.394,0.458c1.732,0.321 3.535,1.061 4.894,1.987c1.291,0.88 1.727,2.319 1.248,3.274c-0.327,0.651 -1.082,1.158 -2.387,1.101c-1.553,-0.067 -2.502,-0.569 -3.386,-1.218c-0.792,-0.582 -1.524,-1.298 -2.686,-1.879c-0.014,-0.007 -0.028,-0.014 -0.042,-0.023c-0.326,-0.204 -0.603,-0.425 -0.827,-0.65c-0.019,0.029 -0.041,0.057 -0.067,0.082c-4.741,4.741 -8.206,10.067 -12.169,15.445c-0.891,1.21 -1.945,2.338 -2.745,3.611c-0.043,0.069 -0.408,0.746 -0.515,0.946c0.014,0.055 0.018,0.113 0.012,0.171c0.571,0.248 1.111,0.508 1.601,0.759c0.437,0.224 1.356,0.665 1.887,1.199c0.309,0.311 0.495,0.66 0.514,1.01c0.031,0.585 -0.318,1.009 -0.861,1.274c-0.587,0.286 -1.417,0.371 -1.829,0.386c-1.274,0.048 -2.8,0.164 -4.199,-0.05c-0.106,-0.016 -0.212,-0.034 -0.317,-0.054c-0.011,0.099 -0.052,0.195 -0.123,0.275c-2.082,2.342 -3.71,5.026 -5.608,7.513c-0.311,0.408 -0.766,1.186 -1.273,1.808c-0.138,0.17 -0.282,0.328 -0.428,0.468c0.141,0.037 0.28,0.075 0.418,0.115c1.478,0.432 2.789,1.09 3.598,2.06c0.475,0.57 0.599,1.11 0.525,1.586c-0.073,0.472 -0.353,0.898 -0.767,1.245c-0.714,0.598 -1.839,0.954 -2.67,0.954c-1.749,0 -3.646,-0.196 -5.397,-0.754c-3.527,4.245 -7.391,9.475 -9.68,14.59c0.011,0.09 0.021,0.181 0.032,0.272c0.003,0.026 0.005,0.052 0.006,0.078c1.818,-0.531 3.52,-1.734 5.124,-2.61c4.619,-2.523 8.921,-5.591 13.291,-8.52c4.373,-2.931 9.227,-5.203 13.467,-8.352c-1.126,-0.546 -2.343,-0.96 -3.361,-1.681c-1.212,-0.858 -1.49,-1.759 -1.304,-2.519c0.114,-0.461 0.412,-0.892 0.849,-1.256c0.577,-0.481 1.404,-0.849 2.277,-1.023c1.842,-0.369 4.826,0.54 6.77,1.467c2.258,-2.951 3.989,-6.504 5.745,-9.73c-0.445,0.086 -0.972,0.129 -1.462,0.139l-0.01,-0c-1.913,-0 -4.526,-1.314 -5.826,-2.614c-0.226,-0.227 -0.838,-0.793 -1.072,-1.292c-0.173,-0.37 -0.17,-0.723 0.01,-1.003c0.272,-0.424 0.736,-0.641 1.276,-0.701c0.629,-0.07 1.365,0.078 1.825,0.186c1.24,0.289 2.899,0.816 4.258,1.623c0.841,0.499 1.566,1.107 2.034,1.819c4.234,-7.358 9.109,-14.204 9.943,-22.943c0.274,-2.865 -0.273,-5.684 -0.711,-8.506Zm-0.198,-1.354c-1.862,-0.263 -3.764,0.259 -5.598,1.122c-2.119,0.998 -4.148,2.454 -5.938,3.846c0.378,0.236 0.76,0.493 0.991,0.631c1.185,0.711 1.454,1.489 1.314,2.1c-0.138,0.601 -0.736,1.15 -1.578,1.454c-0.887,0.32 -2.03,0.382 -2.97,0.048c-0.647,-0.231 -1.201,-0.643 -1.544,-1.269c-1.702,1.242 -3.488,2.367 -5.157,3.66c-2.347,1.82 -4.625,3.756 -6.817,5.795c1.331,0.225 2.927,0.911 3.727,1.773c0.877,0.944 0.564,2.538 -0.663,3.015c-1.236,0.481 -2.403,0.19 -3.548,-0.307c-0.963,-0.417 -1.906,-0.989 -2.877,-1.204c-5.007,5.114 -9.478,10.774 -13.205,16.797c0.812,0.223 1.875,0.538 2.684,1.01c0.876,0.51 1.454,1.211 1.405,2.09c-0.027,0.486 -0.303,0.873 -0.714,1.164c-0.458,0.326 -1.097,0.527 -1.509,0.673c-1.748,0.616 -3.434,0.577 -5.148,0.098c-1.29,1.914 -2.54,3.853 -3.465,5.954c-2.325,5.282 -2.947,12.175 -2.53,18.117c2.307,-4.582 5.698,-9.172 8.861,-13.003c-1.099,-0.46 -2.111,-1.088 -2.955,-1.932c-0.009,-0.009 -0.017,-0.018 -0.026,-0.028c-0.851,-0.993 -0.978,-1.817 -0.739,-2.403c0.157,-0.387 0.48,-0.705 0.949,-0.922c0.569,-0.264 1.379,-0.383 2.311,-0.325c1.194,0.075 2.814,0.186 4.418,0.479c0.048,-0.042 0.104,-0.075 0.168,-0.096c0.281,-0.094 0.549,-0.385 0.816,-0.713c0.499,-0.613 0.946,-1.381 1.253,-1.782c1.879,-2.463 3.499,-5.115 5.544,-7.445c-0.507,-0.179 -0.979,-0.424 -1.397,-0.755c-0.187,-0.148 -1.438,-1.158 -1.928,-2.138l-0,-0.001c-0.485,-0.97 -0.369,-2.419 0.917,-2.646c1.727,-0.304 3.761,0.177 5.596,0.873c0.128,-0.413 0.592,-1.145 0.654,-1.243c0.814,-1.294 1.881,-2.443 2.787,-3.672c3.993,-5.419 7.49,-10.782 12.267,-15.559c0.065,-0.064 0.142,-0.107 0.225,-0.129c-0.007,-0.015 -0.014,-0.03 -0.02,-0.045c-0.186,-0.435 -0.166,-0.842 0.033,-1.179c0.26,-0.44 0.938,-0.821 2.201,-0.783c0.036,0.001 0.073,0.002 0.109,0.004c0.36,-0.122 0.691,-0.493 1.021,-0.912c0.613,-0.778 1.18,-1.744 1.665,-2.229c2.719,-2.72 5.702,-5.151 8.427,-7.852c-0.006,-0.043 -0.012,-0.087 -0.017,-0.131Zm-46.513,50.939c-0.279,-0.328 -0.459,-0.619 -0.545,-0.882c-0.06,-0.184 -0.07,-0.344 -0.015,-0.479c0.094,-0.231 0.342,-0.372 0.66,-0.476c0.432,-0.141 0.989,-0.189 1.611,-0.15c1.578,0.099 3.926,0.256 5.95,0.847c1.27,0.371 2.414,0.906 3.11,1.74c0.241,0.29 0.342,0.551 0.305,0.792c-0.038,0.245 -0.206,0.452 -0.421,0.632c-0.542,0.454 -1.397,0.721 -2.028,0.721c-2.97,0 -6.421,-0.557 -8.621,-2.739l-0.006,-0.006Zm30.061,-5.762c-1.766,-0.819 -4.324,-1.61 -5.933,-1.288c-0.702,0.14 -1.37,0.425 -1.834,0.811c-0.257,0.214 -0.451,0.456 -0.517,0.727c-0.114,0.462 0.173,0.942 0.91,1.464c1.109,0.785 2.465,1.188 3.664,1.822c0.729,-0.577 1.437,-1.184 2.119,-1.83c0.56,-0.531 1.088,-1.103 1.591,-1.706Zm-27.954,-6.829c-0.679,1.105 -1.411,2.187 -2.145,3.269c1.402,0.342 2.788,0.343 4.221,-0.162c0.293,-0.104 0.724,-0.232 1.086,-0.434c0.231,-0.129 0.458,-0.269 0.471,-0.515c0.029,-0.518 -0.394,-0.871 -0.909,-1.171c-0.829,-0.483 -1.948,-0.78 -2.724,-0.987Zm9.435,-3.292c-0.127,-0.255 -0.202,-0.577 -0.153,-0.853c0.032,-0.175 0.134,-0.323 0.35,-0.361c2.416,-0.426 5.47,0.869 7.565,1.943c0.329,0.168 0.974,0.466 1.444,0.844c0.128,0.104 0.242,0.212 0.325,0.327c0.046,0.065 0.085,0.13 0.089,0.201c0.009,0.167 -0.145,0.246 -0.3,0.322c-0.458,0.223 -1.107,0.274 -1.428,0.286c-1.021,0.038 -2.209,0.126 -3.354,0.036c-1.064,-0.085 -2.094,-0.319 -2.884,-0.943c-0.159,-0.126 -1.238,-0.969 -1.654,-1.802Zm25.2,-1.544c-0.379,-0.668 -1.043,-1.214 -1.807,-1.668c-1.268,-0.753 -2.818,-1.24 -3.975,-1.51c-0.375,-0.087 -0.975,-0.223 -1.488,-0.166c-0.204,0.023 -0.399,0.066 -0.516,0.209c0.018,0.044 0.061,0.148 0.102,0.212c0.233,0.358 0.637,0.715 0.797,0.875c1.143,1.143 3.431,2.319 5.114,2.321c0.46,-0.009 0.958,-0.049 1.361,-0.135c0.139,-0.03 0.304,-0.093 0.412,-0.138Zm-18.491,-15.215c-0.537,0.513 -1.069,1.033 -1.595,1.558c0.829,0.282 1.647,0.737 2.474,1.096c0.901,0.391 1.815,0.67 2.788,0.292c0.569,-0.222 0.699,-0.965 0.292,-1.403c-0.823,-0.887 -2.663,-1.532 -3.852,-1.532c-0.037,0 -0.072,-0.004 -0.107,-0.011Zm16.73,-4.626c-0.421,-0.266 -0.739,-0.558 -0.915,-0.844c-0.096,-0.156 -0.169,-0.296 -0.099,-0.414c0.052,-0.088 0.161,-0.142 0.309,-0.19c0.246,-0.081 0.578,-0.116 1.001,-0.104c1.959,0.06 4.264,0.88 5.883,1.983c0.515,0.352 0.855,0.822 0.968,1.285c0.062,0.254 0.054,0.504 -0.051,0.714c-0.193,0.384 -0.679,0.585 -1.45,0.551c-1.578,-0.068 -2.414,-0.68 -3.308,-1.386c-0.666,-0.527 -1.36,-1.103 -2.338,-1.595Zm-0.836,-8.048c-0.701,0.557 -1.358,1.089 -1.961,1.56c-0.062,0.049 -0.124,0.097 -0.187,0.145c0.016,0.022 0.029,0.044 0.041,0.068c0.276,0.552 0.81,0.843 1.394,0.963c0.645,0.133 1.358,0.06 1.932,-0.147c0.267,-0.096 0.504,-0.221 0.683,-0.372c0.129,-0.109 0.229,-0.227 0.261,-0.365c0.026,-0.115 -0.009,-0.237 -0.094,-0.366c-0.139,-0.215 -0.39,-0.43 -0.761,-0.652c-0.297,-0.178 -0.862,-0.576 -1.308,-0.834Z"
    /></g></svg>
