<?xml version="1.0" encoding="iso-8859-1"?>
<!-- Generator: Adobe Illustrator 18.1.1, SVG Export Plug-In . SVG Version: 6.00 Build 0)  -->
<svg version="1.1" id="Capa_1" xmlns="http://www.w3.org/2000/svg" xmlns:xlink="http://www.w3.org/1999/xlink" x="0px" y="0px"
	 viewBox="0 0 57.685 57.685" style="enable-background:new 0 0 57.685 57.685;" xml:space="preserve">
<g>
	<path style="fill:#030104;" d="M46.082,55.274l-0.289-0.479l-0.769-1.538l-0.383-0.928c-0.211-0.506-0.523-1.462-0.699-2.132
		l-0.329-1.247l-0.201-0.608c-0.122-0.366-0.511-1.036-0.883-1.528l-1.183-1.51c-0.273-0.34-0.719-1.277-0.97-2.051
		c-0.264-0.809-0.563-1.967-0.671-2.583c-0.113-0.668-0.386-1.603-0.619-2.126l-0.628-1.354c-0.075-0.153-0.183-0.602-0.183-0.982
		l-0.004-0.458c0.01-0.041,0.007-0.079,0.004-0.108V35.48c-0.242-2.858-2.039-5.857-2.406-6.284
		c-0.273-0.319-0.327-1.188-0.376-1.966c-0.036-0.576-0.231-1.755-0.405-2.795l-0.017-0.101c-0.111-0.671-0.218-1.305-0.24-1.553
		c-0.058-0.65-0.356-2.043-0.942-3.213c-0.312-0.625-0.621-1.775-0.916-3.422l-0.022-0.121c-0.048-0.261-0.024-1.722,0.008-2.681
		l-0.003-1.225c0-0.675-0.07-1.63-0.156-2.131l-0.154-0.894c-0.004-0.011-0.28-1.131-0.33-1.398
		c-0.053-0.282-0.096-0.668-0.096-0.86c0-0.212,0.045-0.748,0.101-1.197l0.104-0.861l0.15-2.022l0.075-0.688
		c0.051-0.448-0.039-1.133-0.204-1.56C32.271,0.05,31.943,0,31.81,0c-0.229,0-0.551,0.124-0.777,0.713l-0.314,0.831l-0.484,0.994
		c-0.262,0.535-0.716,1.321-1.013,1.753c-0.397,0.578-0.569,1.344-0.41,1.82C28.955,6.54,29.38,7.075,29.8,7.355
		c0.09,0.067,0.398,0.771,0.456,1.903l0.001,1.351c-0.02,0.192-0.203,1.932-0.701,3.698c-0.611,2.177,0.404,4.574,0.847,5.315
		c0.373,0.62,0.402,0.874,0.541,2.101c0.027,0.244,0.06,0.524,0.1,0.849c0.21,1.735,0.043,6.057,0.003,7.004
		c-0.972,1.402-0.638,2.576-0.438,3.279c0.045,0.158,0.102,0.354,0.097,0.425c-0.024,0.381-0.302,0.657-0.299,0.657
		c-1.001,0.691-1.914,1.354-2.939,2.481c-0.765,0.84-1.812,2.302-2.336,3.259c-0.827,1.512-1.054,2.604-1.22,3.4
		c-0.041,0.195-0.077,0.371-0.119,0.525c-0.247,0.928-0.617,1.986-1.097,3.293c-0.459,1.244-1.179,2.504-1.286,2.607
		c-0.094,0.061-0.189,0.169-0.383,0.402c-0.216,0.258-0.577,0.689-0.821,0.781c-0.289,0.108-0.575,0.396-0.899,0.906
		c-0.113,0.18-0.248,0.411-0.393,0.659l-0.048,0.081c-0.208,0.359-0.467,0.809-0.677,1.111c-0.396,0.574-0.544,0.724-0.578,0.756
		c-0.163,0.064-0.319,0.219-0.424,0.34c-0.04,0.047-0.319,0.216-0.674,0.264c-0.413,0.055-0.989,0.15-1.292,0.229
		c-0.342,0.088-0.757,0.266-0.956,0.385l-0.628,0.346c-0.147,0.074-0.402,0.164-0.54,0.19l-0.562,0.094
		c-0.368,0.048-0.933,0.476-0.957,0.492c-0.376,0.289-0.348,0.583-0.297,0.731c0.052,0.156,0.219,0.416,0.754,0.416h4.309
		c0.307,0,0.674-0.174,0.893-0.422c0.114-0.132,0.389-0.371,0.599-0.525c0.197-0.145,0.408-0.223,0.437-0.227
		c0.275,0,0.654-0.19,0.907-0.381c0.236-0.178,0.716-0.611,1.09-0.986l0.657-0.655l1.808-1.972l0.534-0.651
		c0.062-0.074,0.118-0.144,0.171-0.204c0.147,0.188,0.296,0.334,0.46,0.452c0.414,0.296,0.916,0.452,1.452,0.452
		c1.064,0,2.164-0.613,2.871-1.603c1.107-1.547,0.969-3.55-0.309-4.464c-0.062-0.045-0.127-0.08-0.191-0.111
		c0.193-0.308,0.307-0.535,0.337-0.676c0.031-0.146,0.286-0.479,0.385-0.607c0.184-0.241,0.329-0.397,0.345-0.411
		c0.021-0.013,0.11-0.044,0.173-0.048l0.013-0.004c0.286,0.066,0.544,0.07,0.875,0.037c0.691-0.062,1.416-0.722,1.551-1.412
		c0.05-0.258,0.066-0.496,0.053-0.744l0.73-0.76c0.131-0.133,0.299-0.343,0.388-0.486c0.098-0.157,0.202-0.442,0.251-0.68
		c0.041-0.203,0.08-0.556,0.091-0.803c0.004-0.104,0.017-0.24,0.034-0.373c0.124,0.172,0.316,0.46,0.475,0.715
		c0.195,0.311,0.494,0.746,0.664,0.938l0.24,0.271l0.516,0.662c0.17,0.217,0.586,0.732,0.754,0.848
		c0.021,0.022,0.133,0.195,0.226,0.427c0.112,0.282,0.315,0.713,0.464,0.981l0.523,0.933c0.16,0.282,0.467,0.749,0.682,1.038
		l0.371,0.503l0.609,0.895l1.034,1.813l0.892,1.389l0.684,1.008l0.409,0.727l0.62,1.189c0.046,0.084,0.115,0.236,0.156,0.342
		c0.039,0.101,0.088,0.269,0.111,0.364c0.016,0.064,0.03,0.144,0.042,0.21c-0.09,0.061-0.26,0.158-0.387,0.223l-0.285,0.143
		l-0.921,0.381l-1.381,0.499c-0.048,0.015-0.101,0.028-0.177,0.048c-0.203,0.053-0.412,0.108-0.561,0.229
		c-0.143,0.114-0.21,0.278-0.188,0.448c0.024,0.194,0.156,0.347,0.388,0.451l0.358,0.162c0.303,0.139,1.049,0.202,1.612,0.202h3.101
		c0.349,0,0.865-0.038,1.177-0.087c0.33-0.052,0.78-0.225,0.987-0.482c0.145-0.18,0.289-0.47,0.289-0.709
		C46.436,55.86,46.097,55.299,46.082,55.274z M31.138,19.179c-0.539-0.907-1.226-2.968-0.756-4.638
		c0.557-1.978,0.73-3.867,0.732-3.895V9.435c0.001-0.015,0.018-0.351-0.001-0.547l-0.08-0.601C30.927,7.681,30.71,6.9,30.289,6.621
		c-0.254-0.171-0.56-0.549-0.641-0.792c-0.045-0.137,0.02-0.627,0.3-1.037c0.318-0.462,0.803-1.3,1.08-1.868l0.501-1.029l0.213-0.56
		c0.034,0.23,0.048,0.468,0.028,0.632l-0.078,0.704l-0.15,2.021L31.44,5.534c-0.062,0.517-0.105,1.064-0.105,1.302
		c0,0.247,0.047,0.688,0.107,1.024c0.021,0.108,0.082,0.348,0.162,0.641c0.1,0.367,0.248,1.059,0.334,1.542l0.08,0.462
		c0.045,0.249,0.08,0.982,0.08,1.635v1.19c-0.019,0.562-0.072,2.428,0.006,2.851l0.023,0.128c0.116,0.642,0.469,2.595,0.992,3.643
		c0.531,1.064,0.804,2.32,0.855,2.905c0.025,0.287,0.133,0.923,0.256,1.665l0.007,0.035c0.161,0.976,0.364,2.189,0.396,2.724
		c0.016,0.248,0.032,0.508,0.057,0.759c-1.075-0.241-2.023-0.081-2.746,0.456c0.059-1.761,0.119-4.629-0.051-6.029
		c-0.039-0.324-0.071-0.604-0.1-0.846C31.649,20.346,31.606,19.96,31.138,19.179z M28.09,48.628c0.024,0.617-0.184,1.268-0.586,1.83
		c-0.547,0.764-1.37,1.237-2.15,1.237c-0.354,0-0.682-0.103-0.948-0.292c-0.139-0.1-0.26-0.229-0.37-0.396
		c0.241-0.273,0.658-0.77,1.189-1.417l1.431-1.739c0.185-0.224,0.379-0.476,0.566-0.73c0.062,0.029,0.121,0.062,0.176,0.1
		C27.82,47.522,28.066,48.022,28.09,48.628z M27.782,44.556l-0.024,0.029c-0.237,0.311-0.475,0.643-0.539,0.943
		c-0.015,0.049-0.127,0.263-0.375,0.635l-0.411,0.576c-0.134,0.181-0.28,0.369-0.441,0.564l-1.43,1.739
		c-0.442,0.538-0.793,0.954-1.017,1.216l-0.497,0.535c-0.144,0.162-0.323,0.377-0.448,0.528l-0.517,0.631L20.3,53.894l-0.642,0.643
		c-0.341,0.342-0.799,0.757-0.999,0.908c-0.175,0.13-0.369,0.201-0.396,0.207c-0.275,0-0.669,0.197-0.937,0.393
		c-0.256,0.188-0.579,0.473-0.737,0.65c-0.062,0.07-0.205,0.132-0.249,0.132h-3.258l0.176-0.029
		c0.218-0.043,0.545-0.157,0.764-0.269l0.68-0.371c0.144-0.087,0.486-0.23,0.731-0.293c0.265-0.067,0.814-0.16,1.192-0.21
		c0.482-0.064,0.992-0.298,1.212-0.556c0.08-0.093,0.123-0.115,0.123-0.115c0.158-0.061,0.328-0.176,0.935-1.051
		c0.228-0.33,0.475-0.758,0.714-1.17l0.045-0.078c0.139-0.237,0.268-0.461,0.376-0.631c0.313-0.492,0.474-0.562,0.476-0.562
		c0.459-0.174,0.875-0.672,1.179-1.036c0.156-0.188,0.209-0.244,0.218-0.252c0.369-0.246,1.224-1.997,1.598-3.015
		c0.487-1.32,0.864-2.399,1.122-3.366c0.044-0.167,0.083-0.353,0.129-0.572c0.033-0.162,0.071-0.337,0.115-0.524
		c1.052,1.068,2.226,1.57,2.941,1.795C27.798,44.535,27.789,44.546,27.782,44.556z M30.622,42.599
		c-0.02,0.16-0.039,0.342-0.07,0.508c-0.063,0.328-0.459,0.69-0.781,0.722c-0.362,0.032-0.655-0.011-0.775-0.029
		c-0.036-0.005-0.061-0.008-0.079-0.008c-0.001,0-0.002,0-0.002,0c-0.087,0.005-0.187,0.022-0.285,0.051
		c-0.212-0.038-2.083-0.413-3.484-2.091c0.192-0.561,0.434-1.104,0.738-1.661c0.1-0.181,0.221-0.386,0.363-0.61
		c1.419,1.565,3.474,2.332,4.458,2.627C30.667,42.211,30.647,42.368,30.622,42.599z M32.158,38.933
		c-0.052,0.221-0.101,0.586-0.108,0.832c-0.009,0.207-0.041,0.514-0.074,0.668c-0.028,0.149-0.103,0.338-0.14,0.396
		c-0.052,0.083-0.176,0.242-0.267,0.332l-0.221,0.229c-0.649-0.166-3.129-0.896-4.607-2.654c0.459-0.658,0.963-1.303,1.359-1.738
		c1.029-1.131,1.972-1.787,2.808-2.357c1.266,1.234,1.452,3.192,1.479,3.856C32.278,38.608,32.199,38.758,32.158,38.933z
		 M33.235,38.302c-0.081-0.949-0.508-3.072-1.807-4.41c0.076-0.186,0.119-0.369,0.133-0.556c0.014-0.217-0.051-0.444-0.129-0.72
		c-0.185-0.65-0.438-1.542,0.389-2.658l0.045-0.08c0.004-0.012,0.449-1.082,1.886-1.082c0.335,0,0.702,0.059,1.091,0.178
		c0.088,0.334,0.213,0.59,0.377,0.78c0.334,0.392,2.034,3.29,2.199,5.914l-0.002,0.54c0,0.037,0.002,0.076,0.005,0.115
		C36.491,36.411,34.072,36.785,33.235,38.302z M45.479,56.352c-0.029,0.027-0.229,0.139-0.453,0.174
		c-0.272,0.039-0.74,0.074-1.043,0.074h-3.102c-0.232,0-0.466-0.012-0.669-0.029l0.925-0.348l1.274-0.554
		c0.093-0.046,0.196-0.104,0.292-0.159l0.104,0.277l-0.039-0.316c0.068-0.043,0.131-0.082,0.178-0.117
		c0.189-0.139,0.367-0.399,0.337-0.672c-0.011-0.093-0.041-0.275-0.073-0.408c-0.031-0.143-0.1-0.356-0.146-0.482
		c-0.055-0.139-0.146-0.333-0.203-0.441l-1.053-1.955l-1.57-2.39l-1.043-1.825l-1.018-1.453c-0.199-0.27-0.48-0.695-0.623-0.951
		l-0.521-0.928c-0.126-0.226-0.312-0.621-0.417-0.882c-0.041-0.102-0.257-0.618-0.509-0.793c-0.037-0.03-0.279-0.292-0.598-0.7
		l-0.783-0.965c-0.117-0.134-0.388-0.519-0.576-0.824c-0.104-0.164-0.219-0.34-0.322-0.494c0.256-1.553,2.786-1.928,3.725-2.012
		c0.043,0.166,0.09,0.299,0.141,0.397l0.226,0.452l0.386,0.869c0.205,0.457,0.455,1.318,0.559,1.92
		c0.109,0.648,0.425,1.861,0.699,2.705c0.287,0.883,0.778,1.904,1.119,2.324l0.551,0.683l0.615,0.808
		c0.307,0.402,0.656,1,0.752,1.279l0.191,0.58l0.32,1.222c0.186,0.7,0.516,1.706,0.738,2.242l0.395,0.954l0.797,1.595l0.305,0.511
		c0.125,0.207,0.203,0.396,0.228,0.471C45.554,56.229,45.52,56.299,45.479,56.352z"/>
</g>
<g>
</g>
<g>
</g>
<g>
</g>
<g>
</g>
<g>
</g>
<g>
</g>
<g>
</g>
<g>
</g>
<g>
</g>
<g>
</g>
<g>
</g>
<g>
</g>
<g>
</g>
<g>
</g>
<g>
</g>
</svg>
