<?xml version="1.0" encoding="iso-8859-1"?>
<!-- Generator: Adobe Illustrator 18.1.1, SVG Export Plug-In . SVG Version: 6.00 Build 0)  -->
<svg version="1.1" id="Capa_1" xmlns="http://www.w3.org/2000/svg" xmlns:xlink="http://www.w3.org/1999/xlink" x="0px" y="0px"
	 viewBox="0 0 58.7 58.7" style="enable-background:new 0 0 58.7 58.7;" xml:space="preserve">
<g>
	<path style="fill:#030104;" d="M37.947,9.294c2.099,0,3.806-2.084,3.806-4.647S40.046,0,37.947,0s-3.806,2.084-3.806,4.647
		S35.848,9.294,37.947,9.294z M37.947,0.878c1.614,0,2.928,1.69,2.928,3.769s-1.314,3.77-2.928,3.77s-2.928-1.692-2.928-3.77
		C35.019,2.568,36.333,0.878,37.947,0.878z M47.341,20.05c-0.396-5.049-1.24-7.084-1.879-7.902
		c-0.334-0.424-1.037-0.607-1.556-0.743l-0.172-0.046c-0.57-0.153-1.148-0.361-1.613-0.529c-0.357-0.127-0.664-0.236-0.908-0.306
		c-0.32-0.09-0.699-0.158-1.159-0.208c-0.479-0.055-1.263-0.084-1.758-0.084c-0.493,0-1.276,0.029-1.756,0.084
		c-0.46,0.051-0.839,0.119-1.159,0.208c-0.232,0.065-0.527,0.171-0.869,0.292l-0.043,0.016c-0.463,0.166-1.038,0.373-1.612,0.528
		l-0.322,0.09c-0.1,0.028-0.409,0.017-0.568-0.024c-1.197-0.305-2.646-0.567-4.306-0.781c-5.367-0.693-9.134-1.017-11.853-1.017
		c-1.976,0-3.407,0.169-4.374,0.518c-0.358,0.129-0.562,0.384-0.542,0.68c0.015,0.234,0.192,0.521,0.647,0.618
		c0.84,0.183,1.773,0.237,2.714,0.153c0.271-0.024,0.562-0.037,0.869-0.037c1.191,0,2.279,0.203,3.094,0.38
		c0.53,0.116,1.251,0.281,1.679,0.395l0.605,0.166c1.431,0.392,3.391,0.93,4.712,1.07c1.438,0.154,4.485,0.86,5.994,1.335
		c0.017,0.002,1.629,0.232,1.903,1.46l0.208,1.015l0.548,2.138c0.284,1.108,0.312,2.576,0.061,3.272l-0.151,0.42
		c-0.125,0.304-0.277,0.722-0.466,1.274l-0.408,1.083c-0.255,0.678-0.627,1.987-0.883,3.108l-0.082,0.29l-0.025,0.159h0.011
		l-0.057,0.274c-0.249,1.207-0.323,3.184-0.167,4.408l0.027,0.217c0.155,1.21,0.588,3.138,0.964,4.297l0.7,2.149l0.309,1.281
		c0.164,0.685,0.298,1.773,0.298,2.425v1.195l-0.108,1.253c-0.064,0.741,0.134,2.138,0.45,3.181
		c0.171,0.566,0.341,1.231,0.455,1.778c0.096,0.465,0.139,1.208,0.094,1.625c-0.01,0.091-0.021,0.185-0.035,0.279
		c-0.014,0.1-0.033,0.214-0.054,0.335l-0.021,0.13c-0.076,0.442-0.162,0.943-0.145,1.32c0.036,0.731,0.205,1.604,0.454,2.332
		c0.309,0.905,0.712,1.096,0.996,1.096c0.269,0,0.638-0.164,0.872-0.943c0.323-1.062,0.419-2.418,0.219-3.085
		c-0.173-0.574-0.312-1.483-0.312-2.025c0-0.548,0.191-1.858,0.427-2.922c0.248-1.107,0.373-2.674,0.279-3.492l-0.168-1.443
		l-0.218-1.089c-0.115-0.577-0.162-1.758-0.103-2.633c0.043-0.627,0.155-1.583,0.285-2.435c0.029-0.186,0.068-0.413,0.109-0.65
		c0.064-0.364,0.137-0.778,0.175-1.079c0.118-0.915,0.194-1.983,0.194-2.723c0-0.719,0.144-1.259,0.242-1.484
		c0.095,0.225,0.235,0.763,0.235,1.484c0,0.729,0.077,1.798,0.195,2.723c0.037,0.294,0.105,0.688,0.172,1.067
		c0.043,0.24,0.083,0.474,0.111,0.661c0.132,0.853,0.243,1.809,0.284,2.436c0.059,0.873,0.013,2.054-0.103,2.633l-0.222,1.117
		l-0.163,1.415c-0.094,0.816,0.031,2.383,0.278,3.492c0.235,1.063,0.427,2.374,0.427,2.922c0,0.545-0.14,1.454-0.312,2.025
		c-0.199,0.668-0.104,2.023,0.218,3.085c0.236,0.779,0.604,0.943,0.872,0.943c0.283,0,0.687-0.19,0.997-1.095
		c0.249-0.721,0.418-1.593,0.453-2.331c0.02-0.377-0.066-0.877-0.146-1.346c-0.028-0.161-0.054-0.313-0.073-0.44
		c-0.012-0.094-0.023-0.188-0.033-0.282c-0.046-0.415-0.003-1.158,0.094-1.623c0.112-0.541,0.283-1.206,0.456-1.778
		c0.31-1.026,0.512-2.453,0.449-3.181l-0.108-1.223v-1.226c0-0.65,0.134-1.738,0.299-2.425l0.302-1.255l0.706-2.176
		c0.376-1.154,0.809-3.082,0.964-4.297l0.028-0.217c0.157-1.224,0.082-3.201-0.167-4.408l-0.046-0.225
		c-0.246-1.2-0.69-2.819-0.991-3.608l-0.536-1.416l-0.489-1.361c-0.249-0.696-0.222-2.165,0.062-3.272l0.551-2.154l0.146-0.702
		c0.518,1.591,1.226,4.323,1.302,5.686c0.076,1.342,0.532,3.402,0.834,4.765l0.132,0.608c0.102,0.47,0.234,1.235,0.297,1.603
		l0.017,0.093c0.175,1.064,0.35,2.479,0.143,3.977c-0.163,1.17-0.082,2.123,0.016,2.717c0.084,0.503,0.401,0.682,0.648,0.682
		c0.272,0,0.508-0.186,0.644-0.511C47.959,34.032,48.054,29.179,47.341,20.05z M37.155,34.182c0,0.716-0.074,1.75-0.189,2.634
		c-0.038,0.289-0.108,0.693-0.171,1.051l-0.033,0.191c-0.029,0.172-0.057,0.333-0.078,0.471c-0.133,0.87-0.247,1.849-0.291,2.493
		c-0.062,0.921-0.012,2.183,0.114,2.813l0.214,1.062l0.164,1.417c0.086,0.748-0.033,2.212-0.268,3.263
		c-0.244,1.099-0.443,2.477-0.443,3.07c0,0.599,0.153,1.596,0.341,2.223c0.158,0.531,0.058,1.788-0.216,2.689
		c-0.087,0.283-0.179,0.408-0.222,0.446c-0.056-0.04-0.2-0.202-0.344-0.622c-0.226-0.657-0.386-1.479-0.417-2.143
		c-0.015-0.31,0.066-0.78,0.139-1.195l0.025-0.153c0.02-0.111,0.037-0.217,0.05-0.311c0.012-0.09,0.023-0.18,0.033-0.269
		l0.004-0.031c0.052-0.481,0.005-1.306-0.105-1.837c-0.118-0.574-0.294-1.262-0.469-1.838c-0.291-0.963-0.48-2.274-0.423-2.923
		l0.11-1.282v-1.226c0-0.695-0.143-1.855-0.318-2.587l-0.316-1.305l-0.706-2.176c-0.365-1.122-0.785-2.993-0.936-4.173l-0.028-0.216
		c-0.148-1.164-0.077-3.04,0.158-4.183l0.048-0.226c0.013-0.067,0.028-0.138,0.044-0.208c0.081-0.002,0.161-0.003,0.239-0.003
		c3.644,0,4.578,2.071,4.811,2.999C37.254,32.48,37.155,33.745,37.155,34.182z M43.579,29.312L43.579,29.312l0.045,0.226
		c0.236,1.149,0.307,3.025,0.158,4.183l-0.028,0.218c-0.149,1.17-0.569,3.041-0.936,4.171l-0.714,2.201l-0.308,1.279
		c-0.175,0.73-0.317,1.892-0.317,2.587v1.255l0.109,1.254c0.058,0.652-0.132,1.964-0.423,2.922
		c-0.177,0.586-0.353,1.273-0.469,1.838c-0.11,0.531-0.156,1.354-0.104,1.833c0.01,0.103,0.021,0.203,0.036,0.302
		c0.015,0.113,0.036,0.241,0.06,0.378l0.016,0.089c0.068,0.393,0.153,0.882,0.138,1.195c-0.031,0.667-0.191,1.487-0.417,2.143
		c-0.153,0.447-0.295,0.583-0.345,0.62c-0.044-0.041-0.135-0.167-0.219-0.445c-0.273-0.902-0.376-2.159-0.217-2.689
		c0.188-0.627,0.341-1.624,0.341-2.223c0-0.594-0.2-1.971-0.445-3.07c-0.234-1.051-0.354-2.515-0.266-3.263l0.159-1.389l0.217-1.09
		c0.125-0.619,0.178-1.881,0.117-2.814c-0.045-0.653-0.16-1.632-0.293-2.493c-0.023-0.151-0.055-0.333-0.088-0.525l-0.025-0.148
		c-0.065-0.372-0.132-0.759-0.167-1.038c-0.115-0.887-0.189-1.921-0.189-2.635c0-0.456-0.103-1.761-0.548-2.106
		c0.318-2.542,4.057-2.978,5.061-3.048C43.539,29.125,43.56,29.221,43.579,29.312z M43.353,28.35
		c-1.205,0.089-4.38,0.533-5.333,2.735c-0.555-1.108-1.91-2.675-5.143-2.675c-0.022,0-0.046,0-0.068,0
		c0.434-1.486,0.83-2.762,1.144-3.69l0.364-0.996c0.659,0.149,2.478,0.517,4.367,0.517c1.244,0,2.31-0.157,3.17-0.469
		C42.126,24.553,43.024,27.165,43.353,28.35z M41.588,23.02l0.034,0.096c-0.797,0.292-1.784,0.439-2.937,0.439
		c-1.727,0-3.381-0.315-4.133-0.482l0.019-0.053c0.295-0.821,0.276-2.435-0.042-3.673l-0.313-1.225
		c0.17,0.045,0.347,0.053,0.515,0.027c0.732-0.112,1.879-0.245,3.182-0.245c1.247,0,2.411,0.12,3.461,0.357
		c0.168,0.038,0.356,0.042,0.534,0.004l-0.277,1.082C41.312,20.59,41.294,22.203,41.588,23.02z M42.329,16.4l-0.182,0.822
		c-0.06,0.265-0.347,0.428-0.623,0.37c-1.102-0.247-2.317-0.373-3.612-0.373c-1.361,0-2.538,0.138-3.285,0.253
		c-0.305,0.049-0.597-0.151-0.658-0.431l-0.149-0.685c-0.076-0.339,0.1-0.825,0.376-1.039l0.839-0.648
		c0.25-0.191,0.818-0.244,1.101-0.102l1.003,0.514c0.484,0.249,1.369,0.274,1.866,0.057l1.404-0.61
		c0.29-0.127,0.819-0.025,1.041,0.193l0.544,0.535C42.251,15.512,42.408,16.047,42.329,16.4z M46.403,35.978
		c-0.087-0.544-0.158-1.413-0.01-2.49c0.223-1.605,0.038-3.078-0.147-4.182c-0.047-0.294-0.196-1.178-0.317-1.73l-0.134-0.61
		c-0.314-1.424-0.745-3.374-0.817-4.657c-0.085-1.511-0.904-4.605-1.438-6.168c-0.155-0.46-0.403-0.557-0.584-0.557
		c-0.006,0-0.012,0-0.018,0c-0.098-0.328-0.26-0.614-0.463-0.814l-0.545-0.534c-0.286-0.285-0.728-0.455-1.183-0.455
		c-0.222,0-0.434,0.042-0.612,0.121l-1.404,0.61c-0.316,0.137-0.977,0.116-1.282-0.04l-1.002-0.513
		c-0.517-0.265-1.38-0.182-1.831,0.17l-0.839,0.648c-0.172,0.133-0.322,0.319-0.437,0.537c-0.72-0.896-1.969-1.075-1.984-1.075
		c-1.501-0.476-4.544-1.186-6.069-1.35c-1.276-0.136-3.206-0.665-4.615-1.052l-0.597-0.164c-0.467-0.125-1.214-0.295-1.713-0.403
		c-0.844-0.185-1.976-0.396-3.239-0.396c-0.31,0-0.622,0.014-0.93,0.039c-0.863,0.077-1.722,0.027-2.49-0.135
		c0.882-0.308,2.263-0.464,4.105-0.464c2.69,0,6.429,0.321,11.766,1.01c1.641,0.213,3.062,0.471,4.223,0.766
		c0.16,0.041,0.357,0.064,0.541,0.064c0.102,0,0.25-0.008,0.38-0.043l0.322-0.089c0.602-0.164,1.215-0.385,1.662-0.546
		c0.373-0.133,0.653-0.232,0.865-0.292c0.275-0.077,0.619-0.139,1.049-0.189c0.456-0.05,1.213-0.079,1.681-0.079
		s1.226,0.029,1.682,0.079c0.429,0.05,0.772,0.111,1.049,0.189c0.209,0.058,0.492,0.159,0.818,0.275l0.045,0.016
		c0.505,0.182,1.078,0.388,1.666,0.548l0.177,0.047c0.373,0.096,0.996,0.256,1.189,0.501c0.581,0.745,1.354,2.657,1.734,7.533
		C47.124,26.059,47.515,33.234,46.403,35.978z M38.769,22.531c0.03,0.052,0.038,0.115,0.02,0.176
		c-0.016,0.061-0.056,0.111-0.112,0.14c-0.217,0.122-0.456,0.184-0.708,0.184c-0.378,0-0.669-0.139-0.749-0.182
		c-0.058-0.033-0.097-0.082-0.115-0.142c-0.017-0.061-0.009-0.124,0.022-0.179c0.056-0.107,0.205-0.154,0.317-0.089
		c0.037,0.018,0.254,0.121,0.527,0.121c0.172,0,0.333-0.041,0.479-0.122C38.554,22.378,38.708,22.418,38.769,22.531z"/>
</g>
<g>
</g>
<g>
</g>
<g>
</g>
<g>
</g>
<g>
</g>
<g>
</g>
<g>
</g>
<g>
</g>
<g>
</g>
<g>
</g>
<g>
</g>
<g>
</g>
<g>
</g>
<g>
</g>
<g>
</g>
</svg>
