<?xml version="1.0" encoding="iso-8859-1"?>
<!-- Generator: Adobe Illustrator 18.1.1, SVG Export Plug-In . SVG Version: 6.00 Build 0)  -->
<svg version="1.1" id="Capa_1" xmlns="http://www.w3.org/2000/svg" xmlns:xlink="http://www.w3.org/1999/xlink" x="0px" y="0px"
	 viewBox="0 0 61.73 61.73" style="enable-background:new 0 0 61.73 61.73;" xml:space="preserve">
<g>
	<path style="fill:#030104;" d="M28.152,15.367c2.099,0,3.806-2.084,3.806-4.647s-1.707-4.647-3.806-4.647s-3.806,2.084-3.806,4.647
		S26.053,15.367,28.152,15.367z M28.152,6.951c1.615,0,2.928,1.69,2.928,3.769s-1.314,3.77-2.928,3.77
		c-1.615,0-2.928-1.692-2.928-3.77C25.224,8.641,26.538,6.951,28.152,6.951z M61.41,50.144c-0.563-0.546-1.398-1.222-1.857-1.506
		c-0.477-0.295-1.499-0.717-2.28-0.938c-0.744-0.214-1.951-0.694-2.69-1.072l-1.365-0.693l-1.685-0.955
		c-0.94-0.534-2.236-1.163-2.891-1.403l-1.122-0.408l-1.658-0.787c-0.421-0.198-0.997-0.496-1.624-0.838
		c-0.875-0.479-1.916-1.326-2.339-1.817c-0.475-0.553-1.462-1.45-2.2-2.002l-1.324-0.986l-1.504-0.974
		c-0.817-0.53-1.989-1.452-2.613-2.056l-1.156-1.121l-0.382-0.379l-0.712-0.922c-0.085-0.152-0.141-0.269-0.171-0.36
		c-0.115-0.348-0.226-1.06-0.244-1.588c-0.021-0.539,0.012-1.37,0.072-1.853c0.06-0.479,0.224-1.335,0.367-1.907
		c0.137-0.554,0.436-0.357,0.669-0.791c0.045-0.085,0.097-0.194,0.157-0.322c0.244-0.519,0.614-1.303,1.187-1.625
		c0.399-0.226,0.929-0.396,1.492-0.479l0.045-0.009c1.503-0.479,4.623-1.202,6.122-1.364c1.367-0.146,3.394-0.7,4.873-1.106
		l0.612-0.167c0.453-0.121,1.216-0.297,1.733-0.409c0.842-0.183,1.965-0.393,3.193-0.393c0.309,0,0.61,0.013,0.898,0.039
		c0.968,0.084,1.933,0.03,2.798-0.158c0.466-0.101,0.649-0.394,0.665-0.634c0.02-0.305-0.189-0.566-0.558-0.7
		c-1.002-0.357-2.477-0.531-4.511-0.531c-2.808,0-6.692,0.333-12.227,1.049c-1.73,0.225-3.225,0.495-4.442,0.806
		c-0.098,0.025-0.252,0.041-0.404,0.041c-0.102,0-0.156-0.008-0.163-0.009l-0.291-0.101c-0.566-0.153-1.138-0.357-1.663-0.546
		c-0.354-0.125-0.687-0.244-0.938-0.316c-0.321-0.091-0.712-0.161-1.195-0.215c-0.507-0.056-1.313-0.086-1.814-0.086
		c-0.5,0-1.305,0.03-1.81,0.086c-0.495,0.056-0.874,0.124-1.195,0.215c-0.253,0.072-0.586,0.191-0.94,0.316
		c-0.511,0.184-1.089,0.391-1.663,0.547l-0.335,0.093c-0.102,0.029-0.423,0.018-0.587-0.025c-1.219-0.311-2.713-0.582-4.442-0.806
		c-5.535-0.716-9.42-1.049-12.227-1.049c-2.034,0-3.51,0.174-4.511,0.532c-0.369,0.133-0.578,0.393-0.559,0.697
		C0.017,18.4,0.2,18.694,0.668,18.795c0.866,0.188,1.831,0.241,2.796,0.158c0.287-0.026,0.589-0.039,0.897-0.039
		c1.228,0,2.352,0.21,3.195,0.393c0.521,0.114,1.287,0.29,1.732,0.408l0.621,0.171c1.477,0.404,3.5,0.958,4.862,1.104
		c1.49,0.161,4.635,0.89,6.187,1.378c0.017,0.002,1.684,0.242,1.967,1.521l0.103,0.36l0.042,0.186
		c0.015,0.076,0.041,0.153,0.076,0.229l0.11,0.381l0.395,1.316l0.196,0.956c0.105,0.507,0.189,1.319,0.189,1.812
		c0,0.499-0.073,1.343-0.163,1.882c-0.027,0.16-0.065,0.346-0.113,0.542l-0.012-0.004l-0.081,0.354
		c-0.079,0.274-0.162,0.516-0.231,0.672c-0.013,0.025-0.024,0.046-0.039,0.07c-0.026,0.051-0.054,0.099-0.104,0.164
		c-0.025,0.028-0.054,0.053-0.088,0.085l-0.208,0.148c-0.069,0.032-0.112,0.036-0.127,0.036h-0.581l-5.491,0.277h-1.77
		c-1,0-2.298,0.118-2.894,0.264c-0.601,0.146-1.296,0.365-1.583,0.5c-0.286,0.134-0.786,0.462-1.141,0.748
		c-0.414,0.335-0.711,0.918-0.69,1.355l0.031,0.609l0.055,0.535c0.037,0.348,0.287,0.979,0.583,1.466
		c0.251,0.414,0.615,1.203,0.812,1.76c0.207,0.592,0.718,1.78,1.139,2.649c0.406,0.842,0.891,1.972,1.08,2.519
		c0.183,0.54,0.38,1.224,0.436,1.525c0.059,0.316,0.106,0.752,0.106,0.974c0,0.236-0.05,0.836-0.11,1.336l-0.114,0.943l-0.167,2.234
		l-0.084,0.759c-0.053,0.475,0.043,1.201,0.218,1.654c0.163,0.426,0.454,0.472,0.572,0.472c0.21,0,0.506-0.121,0.727-0.697
		l0.353-0.928l0.533-1.096c0.29-0.593,0.796-1.467,1.127-1.949c0.408-0.596,0.596-1.405,0.437-1.884
		c-0.15-0.448-0.597-1.009-1.037-1.303c-0.178-0.119-0.542-1.079-0.574-2.415l-0.058-2.271l-0.366-4.075
		c-0.003-0.032,0.004-0.043,0.016-0.057c0.051-0.055,0.205-0.113,0.491-0.113c0.264,0,0.572,0.051,0.868,0.143
		c1.067,0.329,2.386,0.675,2.939,0.77l0.992,0.169l1.181,0.17c0.667,0.095,1.724,0.172,2.353,0.172h3.471v0.035l0.365-0.035H28.7
		c0.11,0.004,0.251,0.025,0.374,0.046l0.021-0.123l0.019,0.132l0.068,0.013c0.238,0.049,0.541,0.124,0.9,0.222l0.438,0.126v-0.001
		c1.017,0.296,2.217,0.698,3.401,1.142l7.469,2.801l0.955,0.393c0.515,0.212,1.377,0.644,1.924,0.964l1.801,1.04
		c0.444,0.254,1.38,0.657,2.085,0.899c0.697,0.237,2.098,0.559,3.122,0.717l1.847,0.282l0.868,0.085
		c0.382,0.038,0.948,0.391,1.212,0.756c0.372,0.512,1.096,1.038,1.647,1.199c0.495,0.143,1.885,0.363,3.098,0.49
		c0.184,0.018,0.355,0.027,0.508,0.027c0.845,0,1.135-0.278,1.228-0.512C61.763,50.803,61.777,50.503,61.41,50.144z M23.047,22.666
		c-0.704-0.767-1.764-0.957-1.948-0.984c-1.543-0.492-4.673-1.221-6.254-1.391c-1.297-0.14-3.275-0.681-4.72-1.075l-0.657-0.18
		c-0.47-0.126-1.221-0.297-1.767-0.415c-1.088-0.237-2.651-0.512-4.3-0.37c-0.888,0.081-1.781,0.03-2.583-0.142
		c0.91-0.321,2.34-0.483,4.25-0.483c2.771,0,6.628,0.331,12.138,1.042c1.693,0.22,3.16,0.486,4.357,0.792
		c0.161,0.041,0.364,0.064,0.558,0.064c0.105,0,0.259-0.008,0.39-0.045l0.331-0.091c0.62-0.168,1.254-0.396,1.716-0.562
		c0.324-0.116,0.659-0.237,0.894-0.303c0.281-0.079,0.636-0.143,1.082-0.193c0.466-0.053,1.241-0.081,1.734-0.081
		c0.495,0,1.272,0.028,1.736,0.081c0.446,0.051,0.8,0.114,1.083,0.193c0.233,0.065,0.568,0.186,0.892,0.304l0.089,0.031
		c0.496,0.176,1.058,0.375,1.604,0.522l0.29,0.098c0.131,0.037,0.284,0.045,0.391,0.045c0.193,0,0.397-0.023,0.557-0.064
		c1.198-0.306,2.665-0.572,4.359-0.792c5.509-0.711,9.365-1.042,12.138-1.042c1.909,0,3.339,0.162,4.249,0.483
		c-0.794,0.171-1.688,0.222-2.584,0.143c-0.32-0.027-0.642-0.041-0.957-0.041c-1.293,0-2.466,0.22-3.343,0.411
		c-0.552,0.119-1.311,0.293-1.766,0.416l-0.632,0.172c-1.452,0.397-3.441,0.941-4.747,1.082c-1.59,0.171-4.7,0.896-6.197,1.378
		c-0.159,0.02-0.989,0.141-1.73,0.56c-0.298,0.167-0.569,0.422-0.823,0.772c-0.083-0.395-0.272-0.772-0.521-1.018l-0.55-0.541
		c-0.294-0.289-0.742-0.462-1.201-0.462c-0.224,0-0.438,0.043-0.619,0.123l-1.421,0.619c-0.318,0.138-0.986,0.119-1.294-0.042
		l-1.015-0.517c-0.521-0.267-1.396-0.186-1.855,0.172L23.55,21.99C23.34,22.154,23.166,22.389,23.047,22.666z M23.818,24.446
		l-0.189-0.732L23.6,23.595c-0.077-0.345,0.101-0.835,0.378-1.051l0.848-0.656c0.252-0.195,0.827-0.248,1.111-0.103l1.015,0.521
		c0.491,0.252,1.386,0.279,1.892,0.058l1.42-0.619c0.29-0.126,0.828-0.025,1.052,0.196l0.548,0.542
		c0.262,0.256,0.42,0.796,0.341,1.154l-0.186,0.831c-0.06,0.268-0.339,0.438-0.627,0.371c-1.106-0.25-2.336-0.377-3.653-0.377
		c-1.369,0-2.563,0.139-3.325,0.256C24.163,24.755,23.939,24.645,23.818,24.446z M24.021,25.388c0.16,0.038,0.327,0.047,0.497,0.022
		c0.737-0.113,1.895-0.248,3.22-0.248c1.259,0,2.436,0.121,3.499,0.36c0.123,0.028-0.204,1.37-0.268,1.874
		c-0.064,0.505-0.099,1.387-0.078,1.967c0.024,0.604,0.147,1.389,0.28,1.784c0.02,0.058,0.046,0.119,0.074,0.183
		c-0.858,0.526-2.031,0.793-3.489,0.793c-1.413,0-2.721-0.255-3.323-0.392c0.052-0.213,0.096-0.422,0.127-0.609
		c0.096-0.574,0.174-1.47,0.174-1.997s-0.092-1.403-0.204-1.953l-0.194-0.944L24.021,25.388z M23.262,39.595
		c-0.603,0-1.615-0.074-2.255-0.166l-1.17-0.167l-0.984-0.168c-0.526-0.091-1.805-0.427-2.85-0.748
		c-0.371-0.115-0.738-0.177-1.063-0.177c-0.461,0-0.813,0.118-1.02,0.343c-0.148,0.16-0.216,0.364-0.196,0.59l0.364,4.053
		l0.056,2.249c0.024,0.977,0.28,2.575,0.887,2.978c0.306,0.205,0.661,0.646,0.761,0.945c0.071,0.213-0.028,0.797-0.349,1.265
		c-0.351,0.509-0.879,1.424-1.179,2.04l-0.547,1.124l-0.365,0.955c-0.013,0.034-0.025,0.064-0.037,0.09
		c-0.106-0.355-0.166-0.874-0.131-1.189l0.085-0.771l0.168-2.233l0.111-0.928c0.065-0.547,0.115-1.157,0.115-1.419
		c0-0.269-0.052-0.753-0.117-1.104c-0.064-0.335-0.273-1.062-0.463-1.622c-0.191-0.559-0.691-1.724-1.113-2.597
		c-0.412-0.854-0.909-2.01-1.107-2.575c-0.208-0.592-0.6-1.441-0.875-1.895c-0.257-0.421-0.461-0.957-0.484-1.175l-0.056-0.514
		L9.42,36.19c-0.008-0.174,0.153-0.555,0.433-0.78c0.312-0.25,0.769-0.551,0.999-0.657c0.239-0.114,0.903-0.322,1.449-0.455
		c0.552-0.134,1.775-0.242,2.729-0.242h1.787l5.49-0.281h0.562c0.189,0,0.399-0.071,0.599-0.201
		c2.716,1.585,3.176,4.854,3.252,6.021H23.262z M29.709,39.76c-0.085-0.021-0.177-0.041-0.268-0.061
		c-0.325-0.07-0.559-0.104-0.725-0.105c-0.376-0.017-0.683-0.022-0.926-0.022c-0.146,0-0.27,0.001-0.37,0.004
		c-0.08-1.229-0.565-4.731-3.452-6.521c0.035-0.056,0.063-0.107,0.085-0.156c0.007-0.014,0.016-0.031,0.015-0.033
		c0.069-0.137,0.131-0.291,0.184-0.458c0.621,0.144,1.995,0.415,3.506,0.415c1.574,0,2.862-0.295,3.829-0.876
		c0.146,0.22,0.306,0.421,0.458,0.574l0.128,0.123l0.449,0.582C31.696,33.84,29.318,35.824,29.709,39.76z M60.458,50.803
		c-0.129,0-0.273-0.008-0.437-0.024c-1.177-0.123-2.511-0.332-2.974-0.467c-0.4-0.115-0.997-0.553-1.275-0.936
		c-0.384-0.529-1.135-0.987-1.711-1.043l-0.851-0.082l-1.826-0.281c-0.986-0.151-2.333-0.459-3.003-0.687
		c-0.663-0.226-1.543-0.604-1.962-0.844L44.622,45.4c-0.568-0.331-1.471-0.782-2.01-1.005l-0.965-0.397l-7.479-2.804
		c-1.268-0.476-2.653-0.937-3.729-1.24c-0.553-4.243,2.27-5.998,2.783-6.28l0.547,0.535c0.652,0.632,1.872,1.592,2.719,2.141
		l1.484,0.961l1.306,0.974c0.703,0.523,1.64,1.374,2.089,1.896c0.461,0.535,1.562,1.442,2.535,1.975
		c0.651,0.355,1.225,0.652,1.658,0.857l1.689,0.799l1.152,0.421c0.62,0.229,1.87,0.835,2.785,1.353l1.699,0.964l1.377,0.702
		c0.775,0.396,2.039,0.897,2.816,1.12c0.735,0.211,1.68,0.598,2.104,0.861c0.429,0.267,1.209,0.9,1.737,1.412
		c0.038,0.035,0.062,0.063,0.079,0.085C60.923,50.76,60.763,50.803,60.458,50.803z M27.161,31.511
		c-0.123-0.068-0.164-0.213-0.103-0.326c0.064-0.113,0.21-0.154,0.321-0.096c0.005,0.003,0.243,0.129,0.549,0.129
		c0.18,0,0.347-0.043,0.497-0.128c0.101-0.059,0.26-0.02,0.324,0.092c0.03,0.055,0.037,0.121,0.019,0.182
		c-0.017,0.062-0.057,0.113-0.113,0.142c-0.224,0.126-0.47,0.189-0.729,0.189C27.56,31.695,27.268,31.566,27.161,31.511z"/>
</g>
<g>
</g>
<g>
</g>
<g>
</g>
<g>
</g>
<g>
</g>
<g>
</g>
<g>
</g>
<g>
</g>
<g>
</g>
<g>
</g>
<g>
</g>
<g>
</g>
<g>
</g>
<g>
</g>
<g>
</g>
</svg>
